<svg width="24" height="24" viewBox="0 0 24 24" fill="none" xmlns="http://www.w3.org/2000/svg">
<path d="M19 4H5C3.89543 4 3 4.89543 3 6V20C3 21.1046 3.89543 22 5 22H19C20.1046 22 21 21.1046 21 20V6C21 4.89543 20.1046 4 19 4Z" stroke="#F2F5FF" stroke-width="2" stroke-linecap="round" stroke-linejoin="round"/>
<path d="M16 2V6" stroke="#F2F5FF" stroke-width="2" stroke-linecap="round" stroke-linejoin="round"/>
<path d="M8 2V6" stroke="#F2F5FF" stroke-width="2" stroke-linecap="round" stroke-linejoin="round"/>
<path d="M3 10H21" stroke="#F2F5FF" stroke-width="2" stroke-linecap="round" stroke-linejoin="round"/>
<path d="M9.7 15H10.5H11.3C11.4105 15 11.5 14.9105 11.5 14.8V13.2C11.5 13.0895 11.5895 13 11.7 13H12.3C12.4105 13 12.5 13.0895 12.5 13.2V14.8C12.5 14.9105 12.5895 15 12.7 15H13.5H14.3C14.4105 15 14.5 15.0895 14.5 15.2V15.8C14.5 15.9105 14.4105 16 14.3 16H13.5H12.7C12.5895 16 12.5 16.0895 12.5 16.2V17.8C12.5 17.9105 12.4105 18 12.3 18H11.7C11.5895 18 11.5 17.9105 11.5 17.8V16.2C11.5 16.0895 11.4105 16 11.3 16H10.5H9.7C9.58954 16 9.5 15.9105 9.5 15.8V15.2C9.5 15.0895 9.58954 15 9.7 15Z" stroke="#F2F5FF" stroke-width="0.5"/>
</svg>
