<svg width="25" height="24" viewBox="0 0 25 24" fill="none" xmlns="http://www.w3.org/2000/svg">
<path d="M22.2211 16.92V19.92C22.2223 20.1985 22.1652 20.4741 22.0536 20.7293C21.9421 20.9845 21.7784 21.2136 21.5732 21.4018C21.368 21.5901 21.1257 21.7335 20.8619 21.8227C20.598 21.9119 20.3185 21.945 20.0411 21.92C16.964 21.5856 14.0081 20.5341 11.4111 18.85C8.99495 17.3146 6.94646 15.2661 5.41112 12.85C3.7211 10.2412 2.66937 7.27097 2.34112 4.17997C2.31614 3.90344 2.349 3.62474 2.43762 3.3616C2.52625 3.09846 2.6687 2.85666 2.85589 2.6516C3.04309 2.44653 3.27093 2.28268 3.52492 2.1705C3.7789 2.05831 4.05347 2.00024 4.33112 1.99997H7.33112C7.81643 1.9952 8.28692 2.16705 8.65489 2.48351C9.02286 2.79996 9.2632 3.23942 9.33112 3.71997C9.45775 4.68004 9.69257 5.6227 10.0311 6.52997C10.1657 6.8879 10.1948 7.27689 10.115 7.65086C10.0353 8.02482 9.84999 8.36809 9.58112 8.63998L8.31112 9.90997C9.73468 12.4135 11.8076 14.4864 14.3111 15.91L15.5811 14.64C15.853 14.3711 16.1963 14.1858 16.5702 14.1061C16.9442 14.0263 17.3332 14.0554 17.6911 14.19C18.5984 14.5285 19.5411 14.7634 20.5011 14.89C20.9869 14.9585 21.4305 15.2032 21.7477 15.5775C22.0648 15.9518 22.2333 16.4296 22.2211 16.92Z" stroke="#C3CBE6" stroke-width="2" stroke-linecap="round" stroke-linejoin="round"/>
</svg>
